<svg width="273.10625px" height="122px" xmlns="http://www.w3.org/2000/svg" viewBox="113.446875 14 273.10625 122" style="background: rgba(0, 0, 0, 0);" preserveAspectRatio="xMidYMid"><defs><filter id="editing-extrusion" x="-100%" y="-100%" width="300%" height="300%"><feFlood result="color1" flood-color="#444"></feFlood><feConvolveMatrix order="8,8" divisor="1" kernelMatrix="1 0 0 0 0 0 0 0 0 1 0 0 0 0 0 0 0 0 1 0 0 0 0 0 0 0 0 1 0 0 0 0 0 0 0 0 1 0 0 0 0 0 0 0 0 1 0 0 0 0 0 0 0 0 1 0 0 0 0 0 0 0 0 1" in="SourceAlpha" result="extrude"></feConvolveMatrix><feComposite in="color1" in2="extrude" result="comp-extrude" operator="in"></feComposite><feOffset dx="4" dy="4" in="comp-extrude" result="offset-extrude"></feOffset><feMerge><feMergeNode in="offset-extrude"></feMergeNode><feMergeNode in="SourceGraphic"></feMergeNode></feMerge></filter></defs><g filter="url(#editing-extrusion)"><g transform="translate(158.0650146305561, 97.07999992370605)"><path d="M0.45-0.32L0.45-0.32L8.51-42.24L8.51-42.24Q16.06-42.88 20.93-42.88L20.93-42.88L20.93-42.88Q25.79-42.88 28.93-42.46L28.93-42.46L28.93-42.46Q32.06-42.05 34.18-40.96L34.18-40.96L34.18-40.96Q38.40-38.91 38.40-33.28L38.40-33.28L38.40-33.28Q38.40-30.02 35.58-27.26L35.58-27.26L35.58-27.26Q32.96-24.77 30.08-24.19L30.08-24.19L30.08-24.19Q33.15-23.68 35.33-21.38L35.33-21.38L35.33-21.38Q37.63-18.94 37.63-15.17L37.63-15.17L37.63-15.17Q37.63-7.87 32.19-3.62L32.19-3.62L32.19-3.62Q26.75 0.64 16.06 0.64L16.06 0.64L16.06 0.64Q8.70 0.64 0.45-0.32ZM17.86-20.61L14.66-4.03L14.66-4.03Q15.23-3.97 15.36-3.97L15.36-3.97L15.94-3.97L15.94-3.97Q21.18-3.97 23.42-7.42L23.42-7.42L23.42-7.42Q25.09-10.11 25.09-15.04L25.09-15.04L25.09-15.04Q25.09-17.66 23.39-19.07L23.39-19.07L23.39-19.07Q21.70-20.48 17.86-20.61L17.86-20.61ZM27.58-33.22L27.58-33.22L27.58-33.22Q27.58-38.53 22.46-38.53L22.46-38.53L21.89-38.53L21.89-38.53Q21.63-38.53 21.25-38.46L21.25-38.46L18.69-24.96L19.33-24.96L19.33-24.96Q27.58-25.15 27.58-33.22ZM61.89-17.98L61.89-17.98L61.89-17.98Q64.19-22.08 64.19-26.24L64.19-26.24L64.19-26.24Q64.19-28.99 62.21-28.99L62.21-28.99L62.21-28.99Q60.67-28.99 59.07-26.37L59.07-26.37L59.07-26.37Q57.41-23.74 56.90-20.35L56.90-20.35L53.57 0L40.32 1.28L46.85-32.64L57.41-33.92L56.26-27.46L56.26-27.46Q59.39-33.92 66.43-33.92L66.43-33.92L66.43-33.92Q70.14-33.92 72.16-32L72.16-32L72.16-32Q74.18-30.08 74.18-26.14L74.18-26.14L74.18-26.14Q74.18-22.21 71.58-19.71L71.58-19.71L71.58-19.71Q68.99-17.22 64.58-17.22L64.58-17.22L64.58-17.22Q62.66-17.22 61.89-17.98ZM101.12-10.82L101.12-10.82L101.12-10.82Q102.72-9.73 102.72-7.33L102.72-7.33L102.72-7.33Q102.72-4.93 101.50-3.39L101.50-3.39L101.50-3.39Q100.29-1.86 98.30-0.83L98.30-0.83L98.30-0.83Q94.21 1.28 89.79 1.28L89.79 1.28L89.79 1.28Q85.38 1.28 82.78 0.32L82.78 0.32L82.78 0.32Q80.19-0.64 78.46-2.43L78.46-2.43L78.46-2.43Q75.07-5.82 75.07-12.03L75.07-12.03L75.07-12.03Q75.07-21.70 80.32-27.58L80.32-27.58L80.32-27.58Q85.95-33.92 95.74-33.92L95.74-33.92L95.74-33.92Q101.82-33.92 104.83-31.36L104.83-31.36L104.83-31.36Q107.07-29.44 107.07-26.30L107.07-26.30L107.07-26.30Q107.07-15.04 87.62-15.04L87.62-15.04L87.62-15.04Q87.36-13.38 87.36-11.97L87.36-11.97L87.36-11.97Q87.36-9.02 88.67-7.90L88.67-7.90L88.67-7.90Q89.98-6.78 92.42-6.78L92.42-6.78L92.42-6.78Q94.85-6.78 97.44-7.90L97.44-7.90L97.44-7.90Q100.03-9.02 101.12-10.82ZM88.06-17.79L88.06-17.79L88.06-17.79Q92.61-17.79 95.23-20.61L95.23-20.61L95.23-20.61Q97.86-23.30 97.86-27.58L97.86-27.58L97.86-27.58Q97.86-29.06 97.31-29.86L97.31-29.86L97.31-29.86Q96.77-30.66 95.68-30.66L95.68-30.66L95.68-30.66Q94.59-30.66 93.66-30.24L93.66-30.24L93.66-30.24Q92.74-29.82 91.78-28.42L91.78-28.42L91.78-28.42Q89.41-25.22 88.06-17.79ZM136.32 1.28L136.32 1.28L136.32 1.28Q128.58 1.28 128.58-4.74L128.58-4.74L128.58-4.74Q128.64-6.40 129.15-9.22L129.15-9.22L130.30-15.10L130.30-15.10Q132.03-23.42 132.03-25.28L132.03-25.28L132.03-25.28Q132.03-28.99 129.86-28.99L129.86-28.99L129.86-28.99Q126.21-28.99 124.29-19.46L124.29-19.46L120.51 0L107.65 1.28L114.30-32.70L124.80-33.92L123.78-27.65L123.78-27.65Q126.78-33.92 136-33.92L136-33.92L136-33.92Q140.48-33.92 142.37-32.03L142.37-32.03L142.37-32.03Q144.26-30.14 144.26-25.92L144.26-25.92L144.26-25.92Q144.26-21.95 142.21-12.67L142.21-12.67L142.21-12.67Q141.25-8.51 141.25-6.94L141.25-6.94L141.25-6.94Q141.25-5.38 142.11-4.48L142.11-4.48L142.11-4.48Q142.98-3.58 144.26-3.46L144.26-3.46L144.26-3.46Q143.62-1.28 141.41 0L141.41 0L141.41 0Q139.20 1.28 136.32 1.28ZM163.33 1.28L163.33 1.28L163.33 1.28Q149.25 1.28 149.25-11.97L149.25-11.97L149.25-11.97Q149.25-21.38 154.43-27.46L154.43-27.46L154.43-27.46Q159.94-33.92 169.47-33.92L169.47-33.92L169.47-33.92Q176.38-33.92 179.90-30.72L179.90-30.72L179.90-30.72Q183.42-27.52 183.42-20.80L183.42-20.80L183.42-20.80Q183.42-10.56 177.92-4.61L177.92-4.61L177.92-4.61Q172.54 1.28 163.33 1.28ZM164.99-26.56L164.99-26.56L164.99-26.56Q164.22-24.83 163.62-22.24L163.62-22.24L163.62-22.24Q163.01-19.65 162.24-15.55L162.24-15.55L162.24-15.55Q161.47-11.46 161.47-6.40L161.47-6.40L161.47-6.40Q161.47-4.74 162.02-3.65L162.02-3.65L162.02-3.65Q162.56-2.56 164.03-2.56L164.03-2.56L164.03-2.56Q165.50-2.56 166.43-3.26L166.43-3.26L166.43-3.26Q167.36-3.97 168.06-5.63L168.06-5.63L168.06-5.63Q169.34-8.58 170.37-14.05L170.37-14.05L170.37-14.05Q171.39-19.52 171.49-21.89L171.49-21.89L171.49-21.89Q171.58-24.26 171.58-26.02L171.58-26.02L171.58-26.02Q171.58-27.78 171.07-28.93L171.07-28.93L171.07-28.93Q170.56-30.08 169.12-30.08L169.12-30.08L169.12-30.08Q167.68-30.08 166.72-29.18L166.72-29.18L166.72-29.18Q165.76-28.29 164.99-26.56Z" fill="#ccc"></path></g></g><style>text {
  font-size: 64px;
  font-family: Arial Black;
  dominant-baseline: central;
  text-anchor: middle;
}</style></svg>